<svg width="18" height="18" viewBox="0 0 18 18" fill="none" xmlns="http://www.w3.org/2000/svg">
<path d="M10.587 6.24C10.6222 6.28223 10.6662 6.31622 10.716 6.33955C10.7657 6.36288 10.82 6.37498 10.875 6.375H12.6C13.026 6.375 13.3237 6.375 13.5547 6.3945C13.7812 6.4125 13.9117 6.447 14.0107 6.49725C14.2226 6.60514 14.3949 6.77738 14.5027 6.98925C14.553 7.08825 14.5875 7.21875 14.6055 7.44525C14.625 7.677 14.625 7.974 14.625 8.4V10.35C14.625 10.776 14.625 11.073 14.6055 11.3048C14.5875 11.532 14.553 11.6618 14.5027 11.7608C14.3949 11.9726 14.2226 12.1449 14.0107 12.2528C13.9117 12.303 13.7812 12.3375 13.5547 12.3555C13.3237 12.375 13.026 12.375 12.6 12.375H6.9C6.474 12.375 6.177 12.375 5.94525 12.3555C5.71875 12.3375 5.58825 12.303 5.48925 12.2528C5.27738 12.1449 5.10514 11.9726 4.99725 11.7608C4.947 11.6618 4.9125 11.532 4.8945 11.3048C4.875 11.073 4.875 10.776 4.875 10.35V6.15C4.875 5.724 4.875 5.427 4.8945 5.19525C4.9125 4.96875 4.947 4.83825 4.99725 4.73925C5.10514 4.52738 5.27738 4.35514 5.48925 4.24725C5.58825 4.197 5.71875 4.1625 5.94525 4.1445C6.177 4.125 6.474 4.125 6.9 4.125H7.87575C8.30925 4.125 8.457 4.128 8.58975 4.164C8.71775 4.198 8.83625 4.25325 8.94525 4.32975C9.057 4.40925 9.15375 4.52025 9.43125 4.854L10.587 6.24Z" stroke="#F7A603" stroke-linejoin="round"/>
<path d="M12.75 12V13.2C12.75 13.83 12.75 14.145 12.6278 14.3857C12.5199 14.5976 12.3476 14.7699 12.1358 14.8777C11.8958 15 11.5808 15 10.95 15H4.05C3.42 15 3.105 15 2.86425 14.8777C2.65238 14.7699 2.48014 14.5976 2.37225 14.3857C2.25 14.1457 2.25 13.8308 2.25 13.2V7.8C2.25 7.17 2.25 6.855 2.37225 6.61425C2.48014 6.40238 2.65238 6.23014 2.86425 6.12225C3.10425 6 3.41925 6 4.05 6H5.25" stroke="#F7A603" stroke-linejoin="round"/>
</svg>
