<svg width="12" height="14" viewBox="0 0 12 14" fill="none" xmlns="http://www.w3.org/2000/svg">
<path d="M2.25 13.75C1.8375 13.75 1.4845 13.6033 1.191 13.3097C0.897502 13.0162 0.750503 12.663 0.750003 12.25V2.5C0.537503 2.5 0.359503 2.428 0.216003 2.284C0.0725027 2.14 0.000502586 1.962 2.5862e-06 1.75C-0.000497414 1.538 0.0715027 1.36 0.216003 1.216C0.360503 1.072 0.538503 1 0.750003 1H3.75C3.75 0.7875 3.822 0.6095 3.966 0.466C4.11 0.3225 4.288 0.2505 4.5 0.25H7.5C7.7125 0.25 7.89075 0.322 8.03475 0.466C8.17875 0.61 8.2505 0.788 8.25 1H11.25C11.4625 1 11.6408 1.072 11.7848 1.216C11.9288 1.36 12.0005 1.538 12 1.75C11.9995 1.962 11.9275 2.14025 11.784 2.28475C11.6405 2.42925 11.4625 2.501 11.25 2.5V12.25C11.25 12.6625 11.1033 13.0157 10.8098 13.3097C10.5163 13.6038 10.163 13.7505 9.75 13.75H2.25ZM9.75 2.5H2.25V12.25H9.75V2.5ZM4.5 10.75C4.7125 10.75 4.89075 10.678 5.03475 10.534C5.17875 10.39 5.2505 10.212 5.25 10V4.75C5.25 4.5375 5.178 4.3595 5.034 4.216C4.89 4.0725 4.712 4.0005 4.5 4C4.288 3.9995 4.11 4.0715 3.966 4.216C3.822 4.3605 3.75 4.5385 3.75 4.75V10C3.75 10.2125 3.822 10.3907 3.966 10.5347C4.11 10.6787 4.288 10.7505 4.5 10.75ZM7.5 10.75C7.7125 10.75 7.89075 10.678 8.03475 10.534C8.17875 10.39 8.2505 10.212 8.25 10V4.75C8.25 4.5375 8.178 4.3595 8.034 4.216C7.89 4.0725 7.712 4.0005 7.5 4C7.288 3.9995 7.11 4.0715 6.966 4.216C6.822 4.3605 6.75 4.5385 6.75 4.75V10C6.75 10.2125 6.822 10.3907 6.966 10.5347C7.11 10.6787 7.288 10.7505 7.5 10.75Z" fill="#EB8063"/>
</svg>
