<svg width="15" height="15" viewBox="0 0 15 15" fill="none" xmlns="http://www.w3.org/2000/svg">
<path d="M10.324 2.83512L12.5818 5.09295M4.54167 4.54195H2.16667C1.9567 4.54195 1.75534 4.62536 1.60687 4.77383C1.45841 4.92229 1.375 5.12366 1.375 5.33362V13.2503C1.375 13.4603 1.45841 13.6616 1.60687 13.8101C1.75534 13.9585 1.9567 14.042 2.16667 14.042H10.875C11.085 14.042 11.2863 13.9585 11.4348 13.8101C11.5833 13.6616 11.6667 13.4603 11.6667 13.2503V9.68779M13.5738 1.84237C13.7221 1.99065 13.8398 2.16671 13.9201 2.36048C14.0004 2.55425 14.0417 2.76194 14.0417 2.97168C14.0417 3.18143 14.0004 3.38911 13.9201 3.58288C13.8398 3.77666 13.7221 3.95271 13.5738 4.10099L8.15562 9.51916L5.33333 10.0836L5.89779 7.26133L11.316 1.84316C11.4641 1.69475 11.6401 1.57701 11.8338 1.49668C12.0275 1.41635 12.2352 1.375 12.4449 1.375C12.6546 1.375 12.8622 1.41635 13.0559 1.49668C13.2497 1.57701 13.4256 1.69475 13.5738 1.84316V1.84237Z" stroke="#5E79C1" stroke-linecap="round" stroke-linejoin="round"/>
</svg>
