<svg width="16" height="16" viewBox="0 0 16 16" fill="none" xmlns="http://www.w3.org/2000/svg">
<path d="M7.99956 13.25C8.70906 13.25 9.35706 13.1727 9.94806 13.0392L8.63031 11.7215C8.42556 11.7372 8.21781 11.75 7.99956 11.75C3.98631 11.75 2.43156 8.86548 2.05506 7.99998C2.33729 7.36882 2.71916 6.78715 3.18606 6.27723L2.13756 5.22873C0.984056 6.47898 0.546806 7.73823 0.538556 7.76298C0.487148 7.91705 0.487148 8.08365 0.538556 8.23773C0.554306 8.28723 2.27481 13.25 7.99956 13.25ZM7.99956 2.74998C6.62181 2.74998 5.49006 3.04698 4.54656 3.48573L1.77981 0.719727L0.719306 1.78023L14.2193 15.2802L15.2798 14.2197L12.7906 11.7305C14.7511 10.2672 15.4508 8.26923 15.4613 8.23773C15.5127 8.08365 15.5127 7.91705 15.4613 7.76298C15.4448 7.71273 13.7243 2.74998 7.99956 2.74998ZM11.7286 10.6685L10.0186 8.95848C10.1611 8.66598 10.2496 8.34423 10.2496 7.99998C10.2496 6.76923 9.23031 5.74998 7.99956 5.74998C7.65531 5.74998 7.33356 5.83848 7.04181 5.98173L5.68581 4.62573C6.43034 4.37085 7.21263 4.24381 7.99956 4.24998C12.0128 4.24998 13.5676 7.13448 13.9441 7.99998C13.7176 8.51898 13.0696 9.75648 11.7286 10.6685Z" fill="#7E849E"/>
</svg>
