<svg width="12" height="12" viewBox="0 0 12 12" fill="none" xmlns="http://www.w3.org/2000/svg">
<path fill-rule="evenodd" clip-rule="evenodd" d="M8.5227 7.69126L11.661 10.8296C11.7713 10.94 11.8333 11.0897 11.8332 11.2457C11.8332 11.4018 11.7711 11.5514 11.6607 11.6617C11.5504 11.772 11.4007 11.834 11.2446 11.8339C11.0886 11.8339 10.9389 11.7718 10.8286 11.6614L7.69028 8.52309C6.75211 9.24974 5.57236 9.59169 4.39102 9.47938C3.20969 9.36707 2.1155 8.80894 1.33106 7.91853C0.546627 7.02812 0.130861 5.87232 0.168347 4.68624C0.205833 3.50017 0.693754 2.37293 1.53285 1.53383C2.37195 0.694731 3.4992 0.206809 4.68527 0.169323C5.87134 0.131838 7.02715 0.547604 7.91756 1.33204C8.80797 2.11648 9.3661 3.21066 9.4784 4.392C9.59071 5.57334 9.24876 6.75309 8.52212 7.69126M4.83312 8.33351C5.76137 8.33351 6.65161 7.96476 7.30799 7.30838C7.96437 6.65201 8.33312 5.76177 8.33312 4.83351C8.33312 3.90525 7.96437 3.01501 7.30799 2.35864C6.65161 1.70226 5.76137 1.33351 4.83312 1.33351C3.90486 1.33351 3.01462 1.70226 2.35824 2.35864C1.70187 3.01501 1.33312 3.90525 1.33312 4.83351C1.33312 5.76177 1.70187 6.65201 2.35824 7.30838C3.01462 7.96476 3.90486 8.33351 4.83312 8.33351Z" fill="#A6B3D5"/>
</svg>
